<svg t="1593310764521" class="icon" viewBox="0 0 1024 1024" version="1.1" xmlns="http://www.w3.org/2000/svg" p-id="828" width="48" height="48"><path d="M794.4 555.9l-94.5-62.6v-15.5c0-126.4-102.9-227.4-147.1-264.9-19.7-16.8-48.6-16.8-68.2 0-44.2 37.6-147.1 138.5-147.1 264.9v15.4L243 555.8c-14.8 9.8-23.7 26.3-23.7 44v51.8c0 29.1 23.7 52.8 52.8 52.8h493c29.1 0 52.8-23.7 52.8-52.8v-51.8c0-17.7-8.7-34.1-23.5-43.9zM337.3 650h-63.5v-49.1l63.5-42.1V650z m54.6 0V477.8c0-102.5 87.6-188.8 126.6-222.2 39 33.4 126.4 119.5 126.6 221.8v172.5l-253.2 0.1z m371.4 0h-63.5v-91.2l63.5 42.1V650z m0 0" fill="#feca60" p-id="829"></path><path d="M519.5 527.3c-43.2 0-78.4-35.1-78.4-78.4 0-43.3 35.1-78.4 78.4-78.4 43.3 0 78.4 35.1 78.4 78.4 0 43.3-35.2 78.4-78.4 78.4z m0-102.1c-13.1 0-23.8 10.6-23.8 23.8 0 13.1 10.6 23.8 23.8 23.8 13.1 0 23.8-10.6 23.8-23.8 0-13.2-10.6-23.8-23.8-23.8z m-0.9 439.3c-14.1 0-25.5-11.4-25.5-25.5V736.8c0-14.1 11.4-25.5 25.5-25.5s25.5 11.4 25.5 25.5V839c0 13.9-11.4 25.5-25.5 25.5zM418 824.1c-14.1 0-25.5-11.4-25.5-25.5v-41.8c0-14.1 11.4-25.5 25.5-25.5s25.5 11.4 25.5 25.5v41.8c0 13.9-11.4 25.5-25.5 25.5z m201.2 0c-14.1 0-25.5-11.4-25.5-25.5v-41.8c0-14.1 11.4-25.5 25.5-25.5s25.5 11.4 25.5 25.5v41.8c0 13.9-11.5 25.5-25.5 25.5z m0 0" fill="#feca60" p-id="830"></path></svg>